<?xml version="1.0" encoding="utf-8"?>
<!-- Generator: Adobe Illustrator 23.0.1, SVG Export Plug-In . SVG Version: 6.00 Build 0)  -->
<svg version="1.1" id="Layer_1" xmlns="http://www.w3.org/2000/svg" xmlns:xlink="http://www.w3.org/1999/xlink" x="0px" y="0px"
	 viewBox="0 0 582 174" style="enable-background:new 0 0 582 174;" xml:space="preserve">
<style type="text/css">
	.st0{fill:#21366B;}
	.st1{fill:none;}
	.st2{fill:#E52D33;}
</style>
<g>
	<path class="st0" d="M124.7,101.2h41.1c1.2,0,2.3-1,2.3-2.3l0.1-12.8c0-1.3-1-2.3-2.3-2.3h-24l0.1-56.6c0-1.2-1-2.3-2.3-2.3
		l-14.9,0c-1.3,0-2.3,1-2.3,2.3L122.4,99C122.4,100.2,123.5,101.2,124.7,101.2z"/>
	<path class="st0" d="M203.1,103.1c16.6,0,27.3-10.1,27.3-25.6l0.1-29.8c0-1.3-1-2.3-2.3-2.3h-13.9c-1.3,0-2.3,1-2.3,2.3v29
		c0,6.2-3.5,10.1-9,10.1c-5.5,0-9.1-4-9.1-10.1l0.1-29c0-1.3-1-2.3-2.3-2.3H178c-1.3,0-2.3,1-2.3,2.3v29.8
		C175.7,93,186.5,103.1,203.1,103.1z"/>
	<path class="st0" d="M245.4,101.2l9.8,0c0.9,0,1.7-0.5,2.1-1.4l1.5-3.2l0.6,0.5c4.6,3.9,10.4,5.9,16.7,5.9
		c17.2,0,29.2-12.2,29.2-29.6c0-17.4-12-29.6-29.2-29.6c-5,0-9.7,1.3-13.8,3.8l-0.9,0.6l0.1-20.8c0-1.3-1-2.3-2.3-2.3l-13.7-0.1
		c-1.3,0-2.3,1-2.3,2.3L243.1,99C243.1,100.2,244.1,101.2,245.4,101.2z M273.5,59.9c7.6,0,13.3,5.8,13.3,13.6
		c0,7.7-5.7,13.5-13.3,13.5s-13.3-5.8-13.3-13.5C260.1,65.8,265.9,59.9,273.5,59.9z"/>
	<path class="st0" d="M349.1,45.4h-2.4c-6.8,0-11.3,1.9-15.2,6.4l-0.6,0.7l-0.4-0.8l-2.2-5c-0.4-0.8-1.2-1.3-2-1.3h-8.5
		c-1.3,0-2.3,1-2.3,2.3L315.3,99c0,1.3,1,2.3,2.3,2.3h13.9c1.3,0,2.3-1,2.3-2.3V73c0-7.5,3.2-10.9,10.4-10.9l4.7,0.1
		c1.3,0,2.3-1,2.3-2.2l0.1-12.3C351.4,46.4,350.3,45.4,349.1,45.4z"/>
	<path class="st0" d="M362,101.2h13.9c1.3,0,2.3-1,2.3-2.3l0.1-51.3c0-1.2-1-2.3-2.3-2.3l-13.9,0c-1.3,0-2.3,1-2.3,2.3L359.7,99
		C359.7,100.2,360.7,101.2,362,101.2z"/>
	<path class="st0" d="M428.8,99l0.1-11.4c0-1.3-1-2.3-2.3-2.3h-4.7c-4.5,0-7.2-2.7-7.2-7.1v-19h11.5c1.3,0,2.3-1,2.3-2.2l0.1-9.3
		c0-1.3-1-2.3-2.3-2.3h-12.1l0.1-20.1l-2.2-0.1c-0.7,0-1.3,0.2-1.8,0.7l-23.8,25.3c-0.4,0.4-0.6,0.9-0.6,1.5l-0.1,4.2
		c0,1.3,1,2.3,2.3,2.3h8.2v22.3c0,12.3,7.3,19.7,19.6,19.7h10.6C427.7,101.2,428.8,100.2,428.8,99z"/>
	<path class="st0" d="M362.1,37.4h13.6c1.2,0,2.3-1,2.3-2.2l0.1-7.6c0-1.3-1-2.3-2.3-2.3l-13.6-0.1c-1.2,0-2.3,1-2.3,2.2l-0.1,7.8
		C359.8,36.3,360.9,37.4,362.1,37.4z"/>
	<path class="st0" d="M465.5,102.9c12.3,0,22.3-6.1,27.2-16.1c0.7-1.5-0.4-3.3-2.1-3.3h-13.3c-0.7,0-1.4,0.4-1.8,0.9
		c-2.2,2.8-5.9,4.4-10.1,4.4c-6.7,0-11.1-3.7-12.4-10.5l-0.2-1h40.4c1.2,0,2.2-0.9,2.3-2.1c0.1-0.8,0.1-1.5,0.1-2.2
		c0-16.7-12.7-28.9-30.1-28.9c-17.4,0-30,12.4-30,29.4C435.5,90.2,448.4,102.9,465.5,102.9z M453.5,67c1.7-6,6-9.3,12-9.3
		c6.2,0,10.7,3.3,12.5,9.3l0.3,1.1h-25.2L453.5,67z"/>
	<path class="st0" d="M560.1,78.7h-13.2c-0.9,0-1.7,0.5-2.1,1.2c-2.1,4.4-6.2,7-11.2,7c-7.3,0-12.6-5.7-12.6-13.6
		c0-7.8,5.3-13.5,12.6-13.5c4.7,0,8.9,2.4,11,6.3c0.4,0.8,1.2,1.3,2,1.3h13.2c1.5,0,2.6-1.4,2.2-2.9c-3.4-12.5-14.4-20.6-28.4-20.6
		c-18,0-30.6,12-30.6,29.3c0,17.1,12.8,29.5,30.5,29.5c14.1,0,25.2-8.4,28.7-21.3C562.7,80.2,561.6,78.7,560.1,78.7z"/>
</g>
<g>
	<path class="st1" d="M55.7,81.7c7.5,0,13.5-6.1,13.5-13.5c0-1.4-0.5-3.1-1.2-5c-2.9-7.3-10.2-16.7-11.2-17.9
		c-0.3-0.3-0.7-0.5-1.1-0.5c-0.4,0-0.9,0.2-1.1,0.5c-1,1.3-8.3,10.7-11.2,17.9c-0.7,1.8-1.2,3.5-1.2,5
		C42.1,75.6,48.2,81.7,55.7,81.7z"/>
	<path class="st0" d="M69.2,68.1c0,7.5-6.1,13.5-13.5,13.5c-7.5,0-13.5-6.1-13.5-13.5c0-1.4,0.5-3.1,1.2-5H18.1V99
		c0,1.2,1,2.3,2.3,2.3H91c1.2,0,2.3-1,2.3-2.3V63.2H68C68.7,65,69.2,66.7,69.2,68.1z"/>
	<path class="st2" d="M91,25.1H20.3c-1.2,0-2.3,1-2.3,2.3v35.8h25.2c2.9-7.3,10.2-16.7,11.2-17.9c0.3-0.3,0.7-0.5,1.1-0.5
		c0.4,0,0.9,0.2,1.1,0.5c1,1.3,8.3,10.7,11.2,17.9h25.2V27.4C93.3,26.2,92.2,25.1,91,25.1z"/>
</g>
<g>
	<g>
		<path class="st0" d="M135.1,132.2c-0.8,4.3-1.3,6.1-2.9,7.6c-1.3,1.3-3.2,2.1-5.2,2.1c-3.1,0-5.3-2.1-5.3-5.2
			c0-0.8,0.2-1.9,0.6-4.6c0.8-4.3,1.3-6.1,2.9-7.7c1.3-1.3,3.2-2.1,5.2-2.1c3.1,0,5.4,2.1,5.4,5.2
			C135.8,128.4,135.6,129.5,135.1,132.2z M130.4,124.1c-1.5,0-2.8,0.6-3.8,1.6c-1,1-1.5,2.4-2.2,6.4c-0.5,2.6-0.6,3.6-0.6,4.5
			c0,2.4,1.7,3.6,3.4,3.6c1.5,0,2.8-0.6,3.8-1.6c1-1,1.5-2.4,2.2-6.4c0.5-2.6,0.6-3.6,0.6-4.5C133.8,125.3,132.1,124.1,130.4,124.1z
			"/>
		<path class="st0" d="M166.5,133.4l-1.7,8.4H163l1.6-8.2c0.1-0.4,0.2-0.9,0.2-1.2c0-1.6-1.1-2.4-2.4-2.4c-0.9,0-3.3,0.4-3.9,3.6
			l-1.6,8.2h-1.9l1.6-8.2c0.1-0.4,0.1-0.9,0.1-1.2c0-1.6-1-2.4-2.4-2.4c-0.9,0-3.3,0.4-3.9,3.6l-1.6,8.2h-1.9l2.6-13.3h1.9L151,130
			c0.9-1,2.2-1.6,3.9-1.6c1.5,0,2.7,0.8,3.3,2.2c1.1-1.4,2.4-2.2,4.7-2.2c2.1,0,3.7,1.4,3.7,3.8C166.7,132.6,166.6,133,166.5,133.4z
			"/>
		<path class="st0" d="M181.7,135.1c-0.6,2.9-1.4,4.4-2.5,5.4c-1.1,1-2.5,1.5-3.8,1.5c-1.5,0-4.3-0.8-4.3-4.4c0-0.8,0.1-1.8,0.2-2.4
			c0.6-2.9,1.4-4.4,2.5-5.4c1.1-1,2.5-1.4,3.8-1.4c1.5,0,4.3,0.7,4.3,4.4C182,133.5,181.9,134.5,181.7,135.1z M177.6,130
			c-0.9,0-1.9,0.4-2.5,1c-0.8,0.8-1.4,1.9-1.8,4.1c-0.2,1-0.3,1.8-0.3,2.4c0,2.1,1.3,2.8,2.6,2.8c0.9,0,1.9-0.4,2.5-1.1
			c0.8-0.8,1.4-1.9,1.8-4.1c0.2-1,0.3-1.8,0.3-2.3C180.1,130.7,178.9,130,177.6,130z"/>
		<path class="st0" d="M189.9,141.8h-1.7l-2-13.3h1.9l1.4,10.7l5.5-10.7h2.1L189.9,141.8z"/>
		<path class="st0" d="M200.4,141.8h-1.9l2.6-13.3h1.9L200.4,141.8z M203.9,124.7h-2.1l0.4-2h2.2L203.9,124.7z"/>
		<path class="st0" d="M226.2,133.4l-1.7,8.4h-1.9l1.6-8.2c0.1-0.4,0.2-0.9,0.2-1.2c0-1.6-1.1-2.4-2.4-2.4c-0.9,0-3.3,0.4-3.9,3.6
			l-1.6,8.2h-1.9l1.6-8.2c0.1-0.4,0.1-0.9,0.1-1.2c0-1.6-1-2.4-2.4-2.4c-0.9,0-3.3,0.4-3.9,3.6l-1.6,8.2h-1.9l2.6-13.3h1.9l-0.3,1.5
			c0.9-1,2.2-1.6,3.9-1.6c1.5,0,2.7,0.8,3.3,2.2c1.1-1.4,2.4-2.2,4.7-2.2c2.1,0,3.7,1.4,3.7,3.8C226.3,132.6,226.2,133,226.2,133.4z
			"/>
		<path class="st0" d="M241.3,135.6h-8.6c-0.1,0.6-0.2,1.1-0.2,1.7c0,1.8,0.9,3,2.9,3c1.6,0,2.6-0.5,3.7-1.6l1.1,1.3
			c-1.4,1.3-3,1.9-5,1.9c-2.6,0-4.5-1.5-4.5-4.6c0-4,1.8-9.1,6.6-9.1c2.8,0,4.3,2,4.3,4.6C241.6,133.5,241.5,134.6,241.3,135.6z
			 M237.2,129.9c-1.9,0-3.5,1.3-4.2,4.3h6.7c0.1-0.4,0.1-0.8,0.1-1.4C239.8,130.8,238.6,129.9,237.2,129.9z"/>
		<path class="st0" d="M257.1,133.4l-1.7,8.4h-1.9l1.6-8.2c0.1-0.4,0.1-0.9,0.1-1.2c0-1.6-1-2.4-2.4-2.4c-0.9,0-3.3,0.4-3.9,3.6
			l-1.6,8.2h-1.9l2.6-13.3h1.9l-0.3,1.5c0.9-1,2.2-1.6,3.9-1.6c2,0,3.6,1.3,3.6,3.8C257.3,132.6,257.2,133,257.1,133.4z"/>
		<path class="st0" d="M268.4,130h-2.6l-1.6,8.2c-0.1,0.4-0.1,0.6-0.1,0.9c0,0.7,0.4,1.1,1.5,1.1h1.1l-0.4,1.6h-1.4
			c-1.2,0-2.8-0.6-2.8-2.5c0-0.4,0.1-0.8,0.1-1.1l1.6-8.2h-1.6l0.3-1.4h1.7l0.8-4.2h1.9l-0.8,4.2h2.6L268.4,130z"/>
		<path class="st0" d="M282.1,135.1c-0.6,2.9-1.4,4.4-2.5,5.4c-1.1,1-2.5,1.5-3.8,1.5c-1.5,0-4.3-0.8-4.3-4.4c0-0.8,0.1-1.8,0.2-2.4
			c0.6-2.9,1.4-4.4,2.5-5.4c1.1-1,2.5-1.4,3.8-1.4c1.5,0,4.3,0.7,4.3,4.4C282.4,133.5,282.2,134.5,282.1,135.1z M277.9,130
			c-0.9,0-1.9,0.4-2.5,1c-0.8,0.8-1.4,1.9-1.8,4.1c-0.2,1-0.3,1.8-0.3,2.4c0,2.1,1.3,2.8,2.6,2.8c0.9,0,1.9-0.4,2.5-1.1
			c0.8-0.8,1.4-1.9,1.8-4.1c0.2-1,0.3-1.8,0.3-2.3C280.5,130.7,279.2,130,277.9,130z"/>
		<path class="st0" d="M301.1,130h-2.6l-1.6,8.2c-0.1,0.4-0.1,0.6-0.1,0.9c0,0.7,0.4,1.1,1.5,1.1h1.1l-0.4,1.6h-1.4
			c-1.2,0-2.8-0.6-2.8-2.5c0-0.4,0.1-0.8,0.1-1.1l1.6-8.2H295l0.3-1.4h1.7l0.8-4.2h1.9l-0.8,4.2h2.6L301.1,130z"/>
		<path class="st0" d="M313.2,130.9c-0.4-0.5-0.9-0.9-1.9-0.9c-1.9,0-3.5,1.6-3.9,3.6l-1.6,8.2H304l2.6-13.3h1.9l-0.3,1.6
			c0.8-1.1,2.1-1.8,3.7-1.8c1.3,0,2.2,0.4,2.9,1.2L313.2,130.9z"/>
		<path class="st0" d="M327.2,132.8l-1.8,9h-1.9l0.3-1.3c-1,1-2.1,1.5-3.8,1.5c-2.1,0-4-0.9-4-3.2c0-1.1,0.3-2.3,1.2-3.1
			c1.1-1.1,2.4-1.4,3.9-1.4h3.9l0.3-1.4c0.1-0.2,0.1-0.6,0.1-0.9c0-1.3-1-2-2.7-2c-1.6,0-2.6,0.5-3.6,1.6l-1.1-1.3
			c1.2-1.3,2.6-1.9,4.8-1.9c1.9,0,4.5,0.6,4.5,3.5C327.4,132,327.3,132.5,327.2,132.8z M321.4,135.6c-2,0-3.4,1.1-3.4,3
			c0,1.1,0.8,1.8,2.6,1.8c1.2,0,2.1-0.4,2.8-1.1c0.5-0.5,0.9-1.3,1.1-2.2l0.3-1.5H321.4z"/>
		<path class="st0" d="M343,133.4l-1.7,8.4h-1.9l1.6-8.2c0.1-0.4,0.1-0.9,0.1-1.2c0-1.6-1-2.4-2.4-2.4c-0.9,0-3.3,0.4-3.9,3.6
			l-1.6,8.2h-1.9l2.6-13.3h1.9l-0.3,1.5c0.9-1,2.2-1.6,3.9-1.6c2,0,3.7,1.3,3.7,3.8C343.2,132.6,343.1,133,343,133.4z"/>
		<path class="st0" d="M356.6,131c-0.9-0.8-1.7-1.1-3.1-1.1c-2.2,0-3.3,1.4-3.3,2.7c0,0.9,0.7,1.3,2,1.5l1.8,0.2
			c2.4,0.4,3.2,1.3,3.2,3.3c0,0.9-0.4,2-1.3,2.9c-1,1-2.8,1.5-4.6,1.5c-2.2,0-3.8-0.6-4.9-1.9l1.4-1.2c0.9,1,1.9,1.5,3.7,1.5
			c2.6,0,3.8-1.5,3.8-2.7c0-1.2-0.7-1.5-1.9-1.7l-1.8-0.3c-2.8-0.4-3.3-1.8-3.3-2.9c0-1,0.4-2.2,1.2-3c0.9-0.9,2.3-1.5,4.2-1.5
			c1.8,0,3.1,0.5,4.2,1.5L356.6,131z"/>
		<path class="st0" d="M369.9,124.1h-1c-1.1,0-1.8,0.5-2.1,1.9l-0.5,2.6h2.8l-0.3,1.4H366l-2.4,11.8h-1.9l2.4-11.8h-1.6l0.3-1.4h1.6
			l0.5-2.7c0.5-2.7,2.3-3.4,3.9-3.4h1.4L369.9,124.1z"/>
		<path class="st0" d="M381.7,135.1c-0.6,2.9-1.4,4.4-2.5,5.4c-1.1,1-2.5,1.5-3.8,1.5c-1.5,0-4.3-0.8-4.3-4.4c0-0.8,0.1-1.8,0.2-2.4
			c0.6-2.9,1.4-4.4,2.5-5.4c1.1-1,2.5-1.4,3.8-1.4c1.5,0,4.3,0.7,4.3,4.4C382,133.5,381.9,134.5,381.7,135.1z M377.6,130
			c-0.9,0-1.9,0.4-2.5,1c-0.8,0.8-1.4,1.9-1.8,4.1c-0.2,1-0.3,1.8-0.3,2.4c0,2.1,1.3,2.8,2.6,2.8c0.9,0,1.9-0.4,2.5-1.1
			c0.8-0.8,1.3-1.9,1.8-4.1c0.2-1,0.3-1.8,0.3-2.3C380.1,130.7,378.9,130,377.6,130z"/>
		<path class="st0" d="M395,130.9c-0.4-0.5-0.9-0.9-1.9-0.9c-1.9,0-3.5,1.6-3.9,3.6l-1.6,8.2h-1.9l2.6-13.3h1.9l-0.3,1.6
			c0.8-1.1,2.1-1.8,3.7-1.8c1.3,0,2.2,0.4,2.9,1.2L395,130.9z"/>
		<path class="st0" d="M417.7,133.4l-1.7,8.4h-1.9l1.6-8.2c0.1-0.4,0.2-0.9,0.2-1.2c0-1.6-1.1-2.4-2.4-2.4c-0.9,0-3.3,0.4-3.9,3.6
			l-1.6,8.2H406l1.6-8.2c0.1-0.4,0.1-0.9,0.1-1.2c0-1.6-1-2.4-2.4-2.4c-0.9,0-3.3,0.4-3.9,3.6l-1.6,8.2H398l2.6-13.3h1.9l-0.3,1.5
			c0.9-1,2.2-1.6,3.9-1.6c1.5,0,2.7,0.8,3.3,2.2c1.1-1.4,2.4-2.2,4.7-2.2c2.1,0,3.7,1.4,3.7,3.8C417.9,132.6,417.8,133,417.7,133.4z
			"/>
		<path class="st0" d="M432.8,132.8l-1.8,9h-1.9l0.3-1.3c-1,1-2.1,1.5-3.8,1.5c-2.1,0-4-0.9-4-3.2c0-1.1,0.3-2.3,1.2-3.1
			c1.1-1.1,2.4-1.4,3.9-1.4h3.9l0.3-1.4c0.1-0.2,0.1-0.6,0.1-0.9c0-1.3-1-2-2.7-2c-1.6,0-2.6,0.5-3.6,1.6l-1.1-1.3
			c1.2-1.3,2.6-1.9,4.8-1.9c1.9,0,4.5,0.6,4.5,3.5C432.9,132,432.8,132.5,432.8,132.8z M426.9,135.6c-2,0-3.4,1.1-3.4,3
			c0,1.1,0.8,1.8,2.6,1.8c1.2,0,2.1-0.4,2.8-1.1c0.5-0.5,0.9-1.3,1.1-2.2l0.3-1.5H426.9z"/>
	</g>
</g>
</svg>
